<?xml version="1.0" encoding="UTF-8" standalone="no"?>
<svg xmlns="http://www.w3.org/2000/svg" width="372.5849" height="373.19244" version="1.0">
  <path d="M152 362.77682v-10.22318l-6.75 6.6189c-8.53265 8.36693-12.05664 10.19659-18.45497 9.58179-5.62912-.54089-10.95361-4.25874-14.00549-9.77938-1.57786-2.85427-1.85492-4.99319-1.55109-11.97495.3091-7.10321.89777-9.56891 3.58226-15.00474 3.45244-6.99088 9.9182-16.09595 11.8869-16.73913.66419-.217-.84596 2.66788-3.35589 6.41083-7.20816 10.74926-10.35408 18.72421-10.34798 26.23226.0081 9.97239 7.48071 15.097 16.81566 11.53195 4.37529-1.67094 12.32731-8.19386 18.84608-15.45916l3.16547-3.52798-.8832-10.97202c-.48577-6.0346-1.37329-18.39701-1.97228-27.47201-.599-9.075-1.40102-16.79676-1.78227-17.15946-.38126-.36271-6.25968 6.02467-13.06315 14.19417-15.40585 18.4991-26.44756 29.93203-36.10682 37.38615-7.91385 6.10717-14.83011 10.10559-15.8009 9.1348-.32113-.32113 4.55998-5.84764 10.8469-12.28115 11.66947-11.94155 12.02169-12.31814 15.35074-16.41292 2.19477-2.6996 12.82268-15.1074 13.58625-15.86159.27842-.275 2.97562-3.425 5.99378-7s5.71536-6.725 5.99378-7c.27842-.275 3.1819-3.5946 6.45218-7.37689l5.94597-6.87689-.26511-12.12311c-.14581-6.66771-.91983-15.57629-1.72003-19.79684-1.40753-7.42379-1.3825-7.82277.76842-12.25 1.22282-2.51695 2.53963-4.57627 2.92623-4.57627.79193 0 1.69196 2.27221 6.51447 16.44645C156.47716 245.917 158 251.50794 158 252.87077v2.47786l-2.31445-2.17432c-3.1327-2.94302-3.95288-2.7356-3.26501.82569.31871 1.65.85881 4.43467 1.20024 6.18815l.62078 3.18815 6.40512-6.93815c3.52282-3.81598 7.95034-9.23709 9.83893-12.04691 2.83988-4.22514 4.22405-5.33001 8.00277-6.38799 2.51293-.70357 4.83529-1.01291 5.1608-.68741.84499.84499-12.97392 27.95154-14.16262 27.78074-.54261-.07796-.98656-1.2481-.98656-2.6003 0-1.3522-.3672-2.49046-.816-2.52946-.4488-.039-3.53187 3.37348-6.85125 7.58328l-6.03524 7.65418.48222 7.64786c.57799 9.16656 3.64082 47.92662 3.9806 50.37445.21448 1.5451.50245 1.57881 2.73967.32074 7.28187-4.09487 16.1732-7.87565 21.5-9.14224 17.31447-4.11698 24.51692-7.25939 24.4682-10.67541-.07635-5.35265-6.09243-8.71669-15.66854-8.76148-9.7746-.04572-13.06984-3.34659-11.79927-11.8194.9529-6.35433 2.89911-9.72303 7.29986-12.63531 3.21889-2.13016 4.23752-2.34185 7.25709-1.5081 6.39036 1.76446 13.45232 10.94436 16.47499 21.41598 1.47025 5.09346 1.5361 6.70137.47101 11.5-1.42821 6.43464-5.10219 13.22462-8.67732 16.03683-1.36358 1.07259-5.70727 2.91554-9.65263 4.09545-19.49502 5.83022-23.53622 7.29644-28.00147 10.15943-6.23277 3.99627-7.30325 5.85708-8.08551 14.05507-.35521 3.72249-1.05132 7.77249-1.54691 9-.4956 1.22752-1.1658 3.46935-1.48934 4.98185C153.255 376.30459 152 372.62683 152 362.77682zm45-69.75114C197 291.8852 191.74811 289 189.6721 289c-1.88578 0-4.01609 2.6344-3.19917 3.9562.81535 1.31927 10.52707 1.38337 10.52707.06948zm26.96937 63.80765c-.01684-8.98333-.46946-21.95833-1.00581-28.83333-.53635-6.875-1.40525-19.025-1.9309-27-.52565-7.975-1.24065-17.07396-1.58889-20.2199l-.63316-5.7199-12.82188-11.1463c-7.05204-6.13046-13.85877-11.66324-15.12607-12.29505-1.52127-.75844-2.76671-2.78638-3.66545-5.96844-.7487-2.65083-1.12374-5.05721-.83344-5.34752 1.15-1.15 28.63623 13.29008 28.63623 15.04424 0 .48393-1.36981.67882-3.04403.4331-1.67421-.24572-3.25093-.11199-3.50381.29718-.50253.81311 7.35017 6.92259 8.89782 6.92259 1.20959 0 .1123-21.14257-1.3494-26-.88465-2.9398-.70154-4.26027 1.14404-8.25 1.20849-2.6125 2.538-4.75 2.95447-4.75C221.46983 224 230 249.17974 230 253.22594c0 2.10423-.0217 2.1023-2.49606-.22224-1.37283-1.2897-2.68398-2.15565-2.91368-1.92431-.40232.4052 1.13586 15.32153 2.00267 19.42061.23261 1.1 2.16134 3.35 4.28606 5 2.12473 1.65 8.30866 6.74632 13.74208 11.32515 5.43341 4.57883 11.00393 9.25933 12.37893 10.40111 1.375 1.14178 5.05409 4.48296 8.17576 7.42485S271.32636 310 271.90671 310c.58035 0 1.33018-1.2375 1.66628-2.75 1.50125-6.75576 4.59677-14.35302 8.59751-21.10071 5.88787-9.93051 9.82921-17.89785 10.49117-21.20763.43852-2.19262.02666-3.09977-2.01459-4.43725-3.81058-2.49678-7.65124-1.16784-14.63564 5.06423-3.34787 2.98725-6.63253 5.48117-7.29924 5.54205-6.19757.56593-11.69433-3.67517-14.16638-10.93024-1.86248-5.46608-.66837-11.39977 2.74344-13.63258 5.5226-3.61419 16.23193-2.76781 25.83409 2.04172C288.12984 251.09724 296 259.25744 296 261.94079c0 .91257.40418 2.08671.89818 2.60921s1.20074 3.23629 1.57054 6.03063c.63267 4.78063.36376 5.66636-4.55402 15-9.81653 18.6312-11.07179 21.51354-12.11752 27.82435l-1.04653 6.3156 5.37467 7.07091c6.22467 8.18915 9.49286 13.92366 8.50075 14.91577-.38242.38242-3.7158-2.43277-7.40753-6.25598L280.50632 328.5l-.65855 10c-.86267 13.09944-1.65651 15.3647-6.74597 19.25-3.83501 2.92764-4.929 3.25-11.0295 3.25-5.89175 0-7.2947-.37848-10.79085-2.91108-3.89907-2.82447-7.47777-7.08056-10.0194-11.91593C237.55244 339.1156 233.62512 320 235.88478 320c.61337 0 1.11522 1.39324 1.11522 3.09609 0 6.04412 4.32385 18.99372 8.74484 26.19015 6.67087 10.85876 19.42628 10.01494 23.65205-1.56468 2.16796-5.94074 3.08496-27.3424 1.21795-28.42545-1.846-1.07085-16.72858-13.73049-39.82371-33.87541-3.06698-2.6752-3.75244-2.22918-3.19556 2.0793.88293 6.83106 2.46544 27.88785 3.04375 40.5.86913 18.95451-2.15962 43.67343-5.4871 44.78259-.83746.27916-1.16059-4.07779-1.18285-15.94926zm42.49259-97.93407c3.92971-3.45034 3.81502-5.24055-.27325-4.26504-3.79378.90524-5.18871 2.24627-5.18871 4.98822 0 3.16005 1.22375 2.99802 5.46196-.72318zM92.5 296.59489c-2.75-1.25944-9.01443-4.59895-13.92096-7.42113-15.46497-8.89529-23.39419-10.17931-29.97605-4.8542-5.98635 4.84331-16.52168 11.09509-17.33185 10.28491-.38419-.38418 2.43514-3.71486 6.26517-7.40149L44.5 280.5l-10-.60977c-10.25683-.62544-14.5799-1.76433-17.87776-4.70983C14.398 273.19381 11 265.70107 11 262.78311c0-7.71631 6.63412-16.90967 15.21784-21.08841C33.18854 238.30122 45.35785 235 50.89657 235c6.02481 0 4.99007.59309-4.42554 2.53662-18.87187 3.89545-30.4752 11.20275-30.46729 19.18706.00987 9.97252 9.79835 15.25209 28.312 15.27053 7.27415.00724 8.50204-.66314 14.4044-7.8642 2.62892-3.20738 10.76796-12.69814 18.08675-21.09058 7.31879-8.39244 13.15148-15.41439 12.96153-15.60434-.18995-.18996-7.30305.36497-15.80689 1.23317-19.68365 2.00959-54.39832 2.27482-61.96153.4734-8.33223-1.98459-12-3.21867-12-4.03759 0-.40746 6.8625-.74821 15.25-.75723 8.3875-.00901 20.875-.54848 27.75-1.19881s21.95-1.87125 33.5-2.71316c13.20058-.96222 21.41876-1.97719 22.12751-2.73281 7.19285-7.66848 19.91458-22.60054 21.80094-25.58872 1.86126-2.94842 3.44229-4.09721 7.01581-5.09773 2.5372-.71038 4.8723-1.03238 5.18911-.71557C133.72249 187.38915 119.97086 214 118.31893 214c-1.20992 0-1.43164-.68647-.96893-3 .33-1.65.41459-3 .18798-3-.92619 0-7.52128 7.58636-7.52931 8.66099-.01007 1.34834 19.24453.83277 24.85812-.66561 4.3818-1.16959 7.93253-.39156 11.58964 2.53948 2.21513 1.77535 2.59125 2.50288 1.5 2.90151C137.93591 225.09684 121.97277 230 120.07594 230h-2.42457l2.17432-2.31445c2.86469-3.04933 2.74274-3.72636-.57569-3.1962-1.5125.24164-5.9.72461-9.75 1.07327-6.85394.6207-7.10433.7438-12 5.89962-2.75 2.89614-9.05 10.15488-14 16.13054-4.95 5.97566-11.88381 14.02437-15.40847 17.88603-5.27631 5.78077-6.07131 7.0787-4.5 7.34672 1.04966.17904 5.14287 1.41958 9.09602 2.75675 7.15826 2.42133 8.50307 3.08998 22.46492 11.16977 4.04114 2.33862 9.13093 4.74429 11.31064 5.34593 3.58958.99078 4.13153.88589 5.75-1.11283 3.26519-4.03235 1.73578-8.86031-4.74703-14.98515-7.10354-6.71129-7.63911-11.76055-1.81672-17.12781C109.92702 254.9289 112.33127 254 118.25994 254c4.50278 0 5.79102.42535 7.81575 2.58056 2.10382 2.23942 2.42255 3.52835 2.41102 9.75-.02954 15.93135-8.40569 27.43275-22.76198 31.25475-6.70488 1.785-7.25445 1.74385-13.22473-.99042zm25.49213-31.18205c-1.29148-3.47618-3.65507-5.47941-5.58933-4.73717-2.06793.79354-1.74904 1.86039 1.74586 5.84087 3.54645 4.03917 5.54134 3.46631 3.84347-1.1037zM339.82385 286.25c-4.39447-4.72533-14.21322-14.02602-20.85013-19.75-1.91316-1.65-7.9774-6.82239-13.4761-11.4942-5.49869-4.67181-10.48624-8.94681-11.08343-9.5-2.7349-2.53336-15.24809-13.53337-18.20085-15.99987-3.12319-2.60886-3.7698-2.73815-13-2.59924-12.62286.18996-20.70463.88835-25.923 2.24015-3.8367.99388-4.6249.84714-8.89672-1.65631-3.99686-2.34232-4.43316-2.8889-2.96283-3.71174 3.17294-1.77567 28.05827-9.59344 28.89442-9.07724.45386.28019-.11276 1.50785-1.25915 2.72813-1.14639 1.22028-1.84851 2.45454-1.56025 2.7428.5379.53789 10.43493-.77989 11.13807-1.48303.70359-.70359-16.88983-15.92749-21.13226-18.28612-1.93569-1.07617-5.39115-9.85713-4.30598-10.9423.62077-.62077 19.20068 8.10926 25.16356 11.82344 3.13432 1.95233 3.54452 2.53466 2.15976 3.06605-.9402.36078-2.11884.40295-2.6192.09371-.50037-.30925-1.35485-.28718-1.89886.04903-.544.33621 1.8185 2.9342 5.25 5.7733 3.43151 2.83911 6.83374 5.74058 7.56053 6.44772 1.63103 1.58696 2.53987 1.57717 24.17857-.26043 9.625-.81738 22.12819-1.7693 27.78487-2.11539 5.65668-.34608 10.15668-.90132 10-1.23385-.15668-.33254-2.20444-4.42961-4.55058-9.10461-2.60895-5.19869-5.41219-13.10325-7.2176-20.35214-1.62354-6.51868-3.77598-13.26868-4.78319-15-2.17968-3.7467-5.70338-4.45831-9.07002-1.83168-2.01124 1.56917-2.43979 3.06617-3.07835 10.75338-.91162 10.97429-1.93892 13.04471-7.17168 14.45374-3.24941.87498-5.01302.77222-8.89914-.51855-12.08033-4.01244-14.3985-13.20882-5.4166-21.48805 9.79233-9.02626 23.24003-11.84219 34.02055-7.12387 8.3879 3.67114 10.75224 6.95426 14.84028 20.60717 4.78865 15.99281 6.03958 19.10184 10.07811 25.04788 3.41851 5.03318 3.45114 5.05166 11.19593 6.34208 10.12411 1.68685 18.66308 4.0479 17.79088 4.91922-.38034.37995-4.70371.53317-9.60749.3405-6.33204-.2488-8.91597-.01185-8.91597.81763 0 .64237 2.68203 3.82511 5.96006 7.07275 7.83772 7.76504 9.37928 10.85446 8.81449 17.66498-.50815 6.1277-2.59124 9.4903-8.37034 13.51174-3.39888 2.36514-4.87495 2.71758-11.40421 2.72294-5.99956.00494-8.81637-.55557-14.07992-2.80172-6.78446-2.89517-13.94228-7.40053-18.56732-11.68688-3.99008-3.69788-1.8853-2.95666 5.51276 1.94138 10.79018 7.14387 16.91572 9.74997 24.13448 10.26796 5.36873.38523 7.06998.1072 9.77493-1.59749 3.9979-2.51952 5.58226-6.30723 4.77601-11.41794-.9136-5.79117-2.72652-8.61319-11.26086-17.52876L341.5 220.97819l-13.5 1.00492c-7.425.55271-19.125 1.44741-26 1.98822s-13.775.9935-15.33333 1.00598c-1.55834.01248-2.68334.40025-2.5.86171.18333.46145 5.05833 4.77349 10.83333 9.5823 22.42719 18.675 31.17752 27.06278 41.14497 39.44023 10.72708 13.32074 13.52195 21.97264 3.67888 11.38845zm-45.79609-105.07915c.62987-6.17129-.95819-6.94458-3.45522-1.68247-1.28385 2.70551-1.40644 3.95347-.54624 5.56076 1.77303 3.31293 3.43156 1.70545 4.00146-3.87829zM176.75 273.48916c-2.6125-1.92973-4.75-4.07476-4.75-4.76674 0-1.53468 4.79057-8.73339 5.78605-8.6946.39267.0153 2.47436 1.35989 4.62597 2.98798 2.9864 2.25976 4.2286 2.69743 5.25 1.84974C188.39791 264.2548 189 263.19031 189 262.5c0-.69031.63893-1.78538 1.41985-2.43348 1.13276-.94011 2.447-.44043 6.5 2.47136C199.71393 264.54523 202 266.32787 202 266.4993c0 1.57595-4.68583 8.5007-5.75224 8.5007-.75966 0-2.93741-1.18698-4.83945-2.63773l-3.45824-2.63773-3.22503 3.6366-3.22504 3.63661-4.75-3.50859zM129.98635 253.75c-.00751-1.7875-.29637-4.30598-.6419-5.59662-.54502-2.03577-1.03997-2.25576-3.73635-1.66073-5.89844 1.30165-5.95133 1.26904-7.28818-4.49265-.70187-3.025-1.08416-6.03892-.84952-6.69759.51187-1.43694 8.17733-3.65157 10.09374-2.91617.75445.28951 1.65678 2.79844 2.03684 5.66344.64865 4.88981.81106 5.11767 3.29067 4.61702 1.43459-.28965 3.30321-.79575 4.15249-1.12466 1.21885-.47205 1.81103.69409 2.81103 5.53561.69678 3.3735 1.00601 6.3945.68718 6.71333-.7859.78591-7.73729 3.17523-9.29235 3.19396-.74392.00896-1.25553-1.30074-1.26365-3.23494zm103.08067-2.86556c-1.42434-5.55748-.79384-6.82156 3.43298-6.88278 1.1-.01593 3.03146-.30527 4.29213-.64296 2.08086-.5574 2.23233-1.01278 1.64333-4.94052-.71447-4.76444-1.0949-4.47543 7.76053-5.89575 4.17449-.66954 5.12463.36175 6.08147 6.60082l.55566 3.62325-5.16656.88558c-5.45309.93469-5.56634 1.1177-4.27625 6.91083.67481 3.03026.65335 3.04792-5.16654 4.25-3.21429.6639-6.2945 1.20709-6.84492 1.20709-.55041 0-1.59074-2.302-2.31183-5.11556zM54 209.68551c-10.30885-5.283-11.36624-7.1359-17.06511-29.90374-1.48256-5.92304-5.75485-14.19438-9.37057-18.14182C24.92812 158.76189 23.48655 158 20.67718 158c-1.95419 0-6.6185-.69598-10.36513-1.54663C.91391 154.31959 0 154.00365 0 152.88846c0-.58462 3.57791-.85867 8.91196-.68261 4.90158.16178 9.26389-.05565 9.69401-.48319.43013-.42754-1.94056-3.57754-5.2682-7C5.28699 136.44246 4 134.32269 4 129.34259c0-7.91671 3.98975-13.9696 11.5-17.44673 4.88554-2.26193 8.92897-2.35771 16.51771-.39127 8.90892 2.30853 28.3762 14.19744 25.05829 15.30341-.67043.22348-2.1993-.4863-3.39748-1.57728C46.72941 118.90335 32.99923 113 25.23196 113c-6.88496 0-10.76136 2.53861-12.23541 8.01282-1.92007 7.13059-.03281 10.97271 11.32468 23.05498l7.75147 8.24613 9.71365-1.14424C50.10831 150.18938 80.88466 148 86.34292 148c3.6119 0 .91358-3.04475-12.84292-14.49178-23.06426-19.19219-36.70066-33.46262-44.1937-46.24853-1.40211-2.39252-2.25468-4.64464-1.8946-5.00472.36007-.36008 5.47725 4.07612 11.37149 9.85821C44.67744 97.89527 52.2 104.84535 55.5 107.55781c3.3 2.71246 14.94119 12.7421 25.8693 22.2881 18.62741 16.27154 20.06499 17.31684 23 16.72396 1.72189-.34782 8.3057-.86544 14.6307-1.15027 6.325-.28484 13.57753-.97626 16.11673-1.53651 3.99362-.88115 5.2475-.72213 9.2903 1.17822 2.57048 1.20826 4.53285 2.61905 4.36084 3.13509-.37564 1.1269-26.07605 9.8036-29.0383 9.8036-2.07407 0-2.07386-.00462.10526-2.32419 1.20091-1.2783 1.99207-2.5158 1.75814-2.75-.95855-.95965-10.59221.33399-10.57983 1.4207.02333 2.04788 17.94519 17.4059 21.98235 18.83763 1.12243.39806 3.60867 9.54503 2.81119 10.34251-.85466.85467-24.9335-11.21856-27.30668-13.69169l-2-2.08423 3.32125.61389c4.96206.91716 3.81626-1.19664-4.1984-7.74536-6.54623-5.34886-7.14773-5.61887-12.5-5.61106-3.09257.00452-9.44785.44258-14.12285.97349-4.675.5309-15.67684 1.44155-24.44854 2.02366-8.77169.58212-16.11668 1.22653-16.32218 1.43204-.20551.20551.69341 2.10367 1.9976 4.21813C43.09297 168.30229 48 179.26007 48 181.01352c0 2.61065 6.07979 22.17862 7.62242 24.53298 1.92812 2.94267 5.26635 3.1739 8.4621.58614 1.9848-1.60719 2.39402-3.10488 2.93725-10.75.74693-10.51186 1.28583-11.97323 5.15277-13.9729 5.44537-2.81591 16.46301.3793 20.32621 5.89479 6.82117 9.73858-9.36322 24.50518-27.00075 24.63541-5.4136.03998-8.01983-.47094-11.5-2.25443zm29.46829-18.41517c.41977-1.67251.13291-3.09771-.81411-4.04473C80.3281 184.89952 79 186.71253 79 192.214c0 4.95265.05372 5.04736 1.91006 3.36739 1.05054-.95072 2.20174-2.89069 2.55823-4.31105zm17.28171 8.06902c-3.40736-1.79474-3.4705-3.69438-.25-7.52173 3.25806-3.87199 3.1691-4.4903-1-6.95013-1.925-1.13578-3.5-2.27702-3.5-2.5361 0-1.13255 6.3161-9.51547 7.51647-9.97609 1.43493-.55064 4.94995 1.00075 7.70135 3.39906 1.93138 1.68352 1.22467 3.88603-2.59278 8.08058L106.5 186.1699l2.13144 1.66505c1.17228.91578 2.91895 2.13045 3.88148 2.69928 1.60248.94702 1.46976 1.43186-1.57394 5.75-3.57321 5.06935-5.35219 5.60277-10.18898 3.05513zm164.0648-.3742c-2.02686-1.07055-3.93118-2.34445-4.23181-2.83088-.30063-.48644.79521-2.73675 2.4352-5.0007 1.64-2.26394 2.98181-4.48681 2.98181-4.93971 0-.45289-1.59821-1.58558-3.55157-2.51707l-3.55156-1.69362 1.77624-3.00694c.97693-1.65382 2.71294-4.18168 3.8578-5.61747 2.07413-2.6012 2.09387-2.60427 5.52533-.85967 6.14047 3.12191 6.19294 3.27838 2.76818 8.2561-3.43531 4.99305-3.5819 4.50398 2.57589 8.59413 1.84966 1.22859 1.8514 1.34071.06538 4.20645-2.20437 3.53701-5.59297 7.46121-6.39 7.40002-.31663-.0243-2.23403-.92009-4.26089-1.99064zM240 186.22855c0-.56179 3.09059-7.01074 6.86798-14.33099 6.9597-13.48728 9.81592-17.01065 8.93741-11.02496-.66116 4.50479 1.24203 3.93264 5.09328-1.53118l3.28367-4.65858-11.84117.65284c-6.51264.35906-13.55373 1.13349-15.64687 1.72096-3.3887.95109-4.30126.7777-8.3285-1.58242-2.48755-1.4578-4.23903-2.93433-3.89218-3.28118 1.7603-1.76029 29.0829-10.30319 30.00461-9.38147.29704.29703-.47655 1.64907-1.71908 3.00453L250.5 148.28057l6.39669-.64029c3.51818-.35215 8.11858-.64028 10.2231-.64028 3.73754 0 4.23926-.47942 21.60331-20.64338 19.66965-22.84133 21.6813-25.29571 21.1454-25.79912-.20268-.19038-4.4185-1.70341-9.3685-3.36227-4.95-1.65886-13.12979-5.5013-18.17732-8.53873-5.04752-3.03744-11.49659-6.34025-14.33126-7.33956L262.83748 79.5l-1.91874 2.36078c-3.52564 4.33789-2.45749 7.41389 5.63079 16.21533 2.31292 2.51687 4.5135 5.54713 4.89017 6.73391.92815 2.92435-1.19518 6.90969-5.54438 10.40638-4.61779 3.71264-13.46602 4.95013-17.32323 2.42279-7.79817-5.10956-4.2217-26.8796 5.90602-35.95 3.16478-2.83438 11.56761-6.47894 16.61645-7.20705 4.27715-.61683 5.41704-.23115 16.5 5.58281 18.54131 9.72651 19.32256 10.0628 25.91506 11.15521l6.21096 1.02919 7.07091-5.37467c13.90406-10.56864 20.29931-11.93506 9.45039-2.0192C332.80885 87.99326 330 91.10941 330 91.78027c0 .84348 2.23642 1.23316 7.25 1.26328 14.25989.08566 19.09407 2.29688 22.85996 10.45645 5.96631 12.92725-4.10271 26.21018-24.15267 31.86192-5.1146 1.44172-11.52794 2.12835-14.95729 1.60136-.825-.12678.525-.56456 3-.97285 15.04926-2.48263 27.03708-8.07829 30.98239-14.46193 4.50799-7.29408 1.10273-15.67824-7.48239-18.42253-1.65-.52743-8.30688-1.13424-14.79306-1.34847l-11.79305-.3895-10.05054 11.566c-5.52779 6.3613-11.25413 12.916-12.72521 14.566-9.82669 11.02193-14.34393 16.62754-13.82075 17.15072.3318.33181 7.93363-.01637 16.89295-.77372 30.86807-2.60935 65.01796-1.35542 70.40712 2.58523 1.36248.99627-1.70235 1.36087-16.21876 1.92943-9.84429.38556-22.6237 1.07931-28.3987 1.54165-5.775.46234-19.64373 1.43801-30.81941 2.16815l-20.3194 1.32754-6.6806 7.50202c-3.67432 4.12611-7.35559 8.22483-8.18059 9.10825-4.33565 4.64268-7.02082 8.10031-8.47603 10.91437-.89087 1.72276-2.83571 3.59569-4.32187 4.16208-4.46451 1.70148-8.2021 2.20858-8.2021 1.11283zm22-75.19375c0-1.53834-6.11568-8.08134-7.02707-7.51807-.79275.48995.18126 5.3057 1.50694 7.4507.80679 1.30541 5.52013 1.36293 5.52013.06737zM150.67498 144.75C146.98953 134.94054 143 122.04796 143 119.94751c0-2.12367.1084-2.15939 1.82874-.6025 2.67193 2.41806 4.53418 2.12525 3.78415-.59501-.3412-1.2375-.91013-5.51736-1.26428-9.51079-.35415-3.99344-1.13996-7.87447-1.74626-8.62451-.60629-.75005-8.30235-7.35857-17.10235-14.68562-8.8-7.32704-18.25-15.47796-21-18.11316-2.75-2.6352-5.55393-4.79681-6.23095-4.80359-.67702-.00678-1.50047 1.22517-1.8299 2.73767-1.74409 8.00772-4.29428 14.34877-8.7042 21.64298C78.78371 107.16088 77.61108 112.39955 85 113.01362c5.06771.42116 6.26409-.12287 11.82424-5.37674 8.68929-8.21065 14.56838-8.02449 19.53883.61869 3.43221 5.96833 4.04127 9.84095 2.22962 14.17683-2.96468 7.09548-13.96509 8.47342-25.81356 3.23346C82.33605 121.04744 76.21771 113.06867 74.6315 102c-.68793-4.80038.50529-7.69135 11.15329-27.02255 2.81542-5.11132 4.53761-9.82041 5.3729-14.69145l1.22933-7.16891-4.53144-5.80855C83.45854 41.672278 78 33.006473 78 31.662142c0-1.887634 2.63853-.049224 7.66103 5.337858 3.07666 3.3 5.98656 6 6.46645 6C92.60737 43 93 39.706676 93 35.681501c0-9.516312 2.18497-16.817912 5.99105-20.020516 10.90934-9.179602 25.6287-3.916586 33.11373 11.84006 3.43868 7.238724 6.60216 21.324405 5.40634 24.072235-.65199 1.4982-.99405.80946-1.53798-3.09673-1.68187-12.078257-6.57041-23.800402-12.15812-29.153774C121.33016 16.942134 120.02777 16.5 115.5 16.5c-4.53842 0-5.82818.440233-8.33997 2.846678-1.63774 1.569057-3.4374 4.710736-4.00984 7-.83095 3.323137-1.66026 20.194462-1.2416 25.259232.05027.60825 4.47589 4.88325 9.8347 9.5 5.35882 4.61675 11.09632 9.57242 12.75 11.0126 20.22452 17.61335 20.15943 17.5621 21.10389 16.61765.3812-.38121.18896-3.96529-.4272-7.96463-2.39322-15.5336-3.58815-45.939973-2.31685-58.954966C143.51483 15.042454 144.55711 7.925 145.16932 6c.61221-1.925 1.26044-4.0625 1.44051-4.75.18007-.6875.72504-1.25 1.21105-1.25.486 0 1.1487 10.4625 1.47267 23.25.32397 12.7875 1.04174 28.2 1.59505 34.25.55332 6.05 1.54965 17.59947 2.21408 25.66549l1.20805 14.66548 12.27971 10.83452c6.75383 5.95898 13.41751 11.25311 14.80816 11.76473 1.57263.57857 3.10928 2.38184 4.06493 4.77023 1.54147 3.85252 2.03119 7.79955.96771 7.79955-.90731 0-24.75561-12.02431-26.16005-13.1899-1.94398-1.61336-1.51283-3.10655.72781-2.52061 1.09946.28751 2.24409.1262 2.54364-.35848.64747-1.04764-5.4936-6.85951-7.29264-6.9017-1.76449-.04138-1.61761 10.33258.30166 21.30485 1.50566 8.60776 1.49048 8.94734-.5924 13.25-1.17572 2.42871-2.48639 4.41584-2.91261 4.41584-.42621 0-1.49347-1.9125-2.37167-4.25zm-39.69766-28.72732C112.99505 114.00495 112.7574 111 110.5801 111c-1.26022 0-6.5801 5.09724-6.5801 6.30472 0 1.51755 5.11816.57712 6.97732-1.28204zM223.99301 148.75c-.00385-.1375-2.02885-6.24549-4.5-13.57331C217.02185 127.84887 215 120.90792 215 119.75237v-2.101l2.31445 2.17432C218.5874 121.02156 219.9529 122 220.34889 122c.85753 0-.29681-10.16668-1.27788-11.25476-.83298-.92383-13.72273 13.14005-17.41814 19.00476-1.64142 2.60498-3.42439 4.25-4.6064 4.25-1.06064 0-2.20655.45-2.54647 1-.33992.55-1.7468 1-3.1264 1-3.16103 0-2.90116-.92944 4.04656-14.47274C203.38989 105.99175 205 104.08038 205 110.15499c0 3.14724.00521 3.15031 2.12184 1.25 1.16701-1.04775 4.09201-4.45831 6.5-7.57903 4.19221-5.43306 4.37784-5.96395 4.37061-12.5-.00416-3.75428-.41831-9.52596-.92033-12.82596-.50202-3.3-1.18571-10.725-1.5193-16.5-.87098-15.07801-1.73397-24-2.32143-24-.28061 0-2.58496 1.263315-5.12079 2.807366-5.71705 3.48108-14.17811 6.894654-20.1106 8.113524-20.45406 4.20244-27.16271 9.31674-20.41918 15.56643C169.96888 66.7005 171.17452 67 177.69568 67c4.58656 0 8.49455.56413 10.27069 1.48261 6.97274 3.60574 6.03941 17.43468-1.58125 23.42909-6.44556 5.07008-15.17947.68255-21.07211-10.58569-4.39943-8.41283-5.56306-14.06163-4.20301-20.40333 2.49618-11.6393 8.59831-18.134515 19.55116-20.810628 15.91266-3.887943 24.05154-7.132419 30.29357-12.076195 3.58059-2.835883 3.82021-3.385 4.47979-10.266C216.23143 9.456158 218.69869 0 220.07096 0 220.58193 0 221 4.275 221 9.5s.36322 9.5.80717 9.5c.44394 0 3.36948-2.648983 6.5012-5.886629 9.15885-9.468635 16.09988-11.36976 24.78435-6.788349 13.23688 6.982996 12.43417 27.268311-1.8173 45.924978-5.69294 7.45265-7.43918 7.45265-2.41286 0 6.07687-9.010325 8.94949-14.727427 10.53898-20.974703 2.21371-8.700732.32792-14.812478-5.50038-17.826409-6.56112-3.392886-12.74965-.770979-24.68397 10.457901l-8.28281 7.793214 1.01266 10.899998c.55697 5.994999 1.48427 18.049859 2.06067 26.788569.5764 8.73871 1.40947 16.53448 1.85127 17.32392.78132 1.39615 6.29832-4.4787 22.68823-24.15985 7.09585-8.52077 20.06828-21.365473 26.46473-26.204168C282.53551 30.657151 291 25.810649 291 27.194208c0 .628272-5.07373 6.354096-11.27496 12.724053C273.52381 46.28822 264.87744 55.775 260.5109 61c-6.71355 8.03342-20.83154 24.33514-22.51712 26-.27842.275-2.9199 3.32341-5.86995 6.77425l-5.36374 6.27425.16049 9.22575c.18825 10.82131.72356 17.02734 2.16585 25.10915.95735 5.36446.84563 6.26855-1.26652 10.25-1.27406 2.40163-2.65475 4.3666-3.06819 4.3666-.41345 0-.75487-.1125-.75871-.25zm-38.43414-66.18268c3.23494-2.38759-.97433-4.21913-8.43131-3.66864-2.65565.19605 2.60002 4.6601 5.93131 5.03793.30738.03487 1.43238-.58132 2.5-1.36929zM118.12168 138.75c-2.13471-5.79506-2.17655-7.65027-.19643-8.70999C118.99405 129.468 121.4731 129 123.43426 129c3.91199 0 4.48806-1.44392 2.57914-6.46475-.85117-2.23876-.67959-2.70887 1.25-3.42491 1.23013-.45648 4.33241-1.05807 6.89395-1.33687l4.65736-.50691 1.21292 4.33211c1.64608 5.87924.87898 7.39791-3.74625 7.41664-5.78359.02342-6.88533 1.11021-5.5468 5.47153 1.2455 4.05822 1.45208 3.86146-5.73458 5.46205-6.0401 1.34522-5.93437 1.36365-6.87832-1.19889zm125.78281-3.2862-1.23895-5.53619-4.17662.62632-4.17661.62632-1.14535-5.7031c-.62994-3.1367-.9368-6.04053-.68192-6.45295.5589-.90432 9.40257-3.46992 9.97786-2.89463.22305.22305.63549 2.31322.91653 4.64482.63311 5.25255 1.32787 6.43087 3.45473 5.85923 7.14997-1.92171 6.81204-2.10933 8.11321 4.50441.66137 3.36166.83127 6.44441.37756 6.85056-1.0369.9282-7.19536 3.01141-8.90244 3.01141-.73553 0-1.80554-2.35258-2.518-5.5362zM177 110.9315c-2.475-1.76893-4.65532-3.34499-4.84516-3.50236-.74489-.61749 1.01369-6.0515 2.65443-8.20217l1.73408-2.27304 4.36668 3.21129c4.36394 3.20928 4.36768 3.20999 5.97832 1.1416.88641-1.13833 2.10748-2.90545 2.71349-3.92693 1.04593-1.76299 1.3112-1.71215 5.22747 1.00182 6.68118 4.63006 6.88874 5.14267 4.12835 10.1958-1.32874 2.43237-2.87529 4.40997-3.43677 4.39467-.56149-.0153-2.82016-1.38887-5.01927-3.05237-4.33083-3.27604-4.62237-3.18366-8.00162 2.53549-.90105 1.52497-1.44526 1.3742-5.5-1.5238z"/>
</svg>